<svg xmlns="http://www.w3.org/2000/svg" width="64" height="64" viewBox="0 0 64 64" fill="none" role="img" aria-label="AtlasGo logo">
  <defs>
    <linearGradient id="atlasgo-blue" x1="8" y1="10" x2="56" y2="60" gradientUnits="userSpaceOnUse">
      <stop stop-color="#2563EB"/>
      <stop offset="1" stop-color="#06B6D4"/>
    </linearGradient>
  </defs>

  <!-- Sun -->
  <circle cx="20" cy="18" r="7" fill="#F59E0B" opacity="0.95"/>

  <!-- Mountain -->
  <path d="M12 52L24 30L32 44L40 32L52 52H12Z" fill="url(#atlasgo-blue)"/>

  <!-- Route line -->
  <path d="M22 52C24 44 30 42 34 42C40 42 44 38 46 32" stroke="#0F172A" stroke-opacity="0.9" stroke-width="3" stroke-linecap="round"/>
  <path d="M22 52C24 44 30 42 34 42C40 42 44 38 46 32" stroke="#FFFFFF" stroke-opacity="0.35" stroke-width="1.5" stroke-linecap="round"/>

  <!-- Route nodes -->
  <circle cx="22" cy="52" r="4" fill="#FFFFFF" opacity="0.9"/>
  <circle cx="22" cy="52" r="2.2" fill="#0F172A" opacity="0.9"/>

  <circle cx="34" cy="42" r="4" fill="#FFFFFF" opacity="0.9"/>
  <circle cx="34" cy="42" r="2.2" fill="#0F172A" opacity="0.9"/>

  <circle cx="46" cy="32" r="4" fill="#FFFFFF" opacity="0.9"/>
  <circle cx="46" cy="32" r="2.2" fill="#0F172A" opacity="0.9"/>
</svg>

